HIERARCHY
ROOT Root
{
  OFFSET 0.0 0.0 0.0
  CHANNELS 6 Xposition Yposition Zposition Zrotation Yrotation Xrotation
  JOINT Hips
  {
    OFFSET 0.0 100.0 0.0
    CHANNELS 6 Xposition Yposition Zposition Zrotation Yrotation Xrotation
    JOINT Spine1
    {
      OFFSET 5.003913 -0.037094 -0.013727
      CHANNELS 3 Zrotation Yrotation Xrotation
      JOINT Spine2
      {
        OFFSET 7.125363 -1e-06 0.0
        CHANNELS 3 Zrotation Yrotation Xrotation
        JOINT Chest
        {
          OFFSET 7.594027 1e-06 0.0
          CHANNELS 3 Zrotation Yrotation Xrotation
          JOINT Neck1
          {
            OFFSET 26.313086 -0.460272 -0.181672
            CHANNELS 3 Zrotation Yrotation Xrotation
            JOINT Neck2
            {
              OFFSET 8.045911 0.0 0.0
              CHANNELS 3 Zrotation Yrotation Xrotation
              JOINT Head
              {
                OFFSET 6.432774 0.0 0.0
                CHANNELS 3 Zrotation Yrotation Xrotation
                JOINT HeadEnd
                {
                  OFFSET 16.169773 0.06451 0.00362
                  CHANNELS 3 Zrotation Yrotation Xrotation
                }
                JOINT Jaw
                {
                  OFFSET 0.108741 3.12938 0.002639
                  CHANNELS 3 Zrotation Yrotation Xrotation
                }
                JOINT LeftEye
                {
                  OFFSET 4.45173 8.166359 3.206392
                  CHANNELS 3 Zrotation Yrotation Xrotation
                }
                JOINT RightEye
                {
                  OFFSET 4.436895 8.135758 -3.222429
                  CHANNELS 3 Zrotation Yrotation Xrotation
                }
              }
            }
          }
          JOINT LeftShoulder
          {
            OFFSET 23.218927 5.195579 1.621656
            CHANNELS 3 Zrotation Yrotation Xrotation
            JOINT LeftArm
            {
              OFFSET 15.902118 2e-06 -2e-06
              CHANNELS 3 Zrotation Yrotation Xrotation
              JOINT LeftForeArm
              {
                OFFSET 28.739307 0.0 -1e-06
                CHANNELS 3 Zrotation Yrotation Xrotation
                JOINT LeftHand
                {
                  OFFSET 27.093981 -4e-06 0.0
                  CHANNELS 3 Zrotation Yrotation Xrotation
                  JOINT LeftHandThumb1
                  {
                    OFFSET 2.276781 3.380274 0.83384
                    CHANNELS 3 Zrotation Yrotation Xrotation
                    JOINT LeftHandThumb2
                    {
                      OFFSET 4.705309 -1e-06 -1e-06
                      CHANNELS 3 Zrotation Yrotation Xrotation
                      JOINT LeftHandThumb3
                      {
                        OFFSET 2.798515 0.0 3e-06
                        CHANNELS 3 Zrotation Yrotation Xrotation
                        JOINT LeftHandThumbEnd
                        {
                          OFFSET 3.180793 4e-06 -4e-06
                          CHANNELS 3 Zrotation Yrotation Xrotation
                        }
                      }
                    }
                  }
                  JOINT LeftHandIndex1
                  {
                    OFFSET 3.247786 2.352677 0.137192
                    CHANNELS 3 Zrotation Yrotation Xrotation
                    JOINT LeftHandIndex2
                    {
                      OFFSET 6.367095 1e-06 0.0
                      CHANNELS 3 Zrotation Yrotation Xrotation
                      JOINT LeftHandIndex3
                      {
                        OFFSET 3.662364 0.0 0.0
                        CHANNELS 3 Zrotation Yrotation Xrotation
                        JOINT LeftHandIndex4
                        {
                          OFFSET 2.329242 4e-06 -4e-06
                          CHANNELS 3 Zrotation Yrotation Xrotation
                          JOINT LeftHandIndexEnd
                          {
                            OFFSET 2.767823 1e-06 0.0
                            CHANNELS 3 Zrotation Yrotation Xrotation
                          }
                        }
                      }
                    }
                  }
                  JOINT LeftHandMiddle1
                  {
                    OFFSET 3.163612 0.945023 -0.406112
                    CHANNELS 3 Zrotation Yrotation Xrotation
                    JOINT LeftHandMiddle2
                    {
                      OFFSET 6.276789 3e-06 0.0
                      CHANNELS 3 Zrotation Yrotation Xrotation
                      JOINT LeftHandMiddle3
                      {
                        OFFSET 4.35652 -1e-06 4e-06
                        CHANNELS 3 Zrotation Yrotation Xrotation
                        JOINT LeftHandMiddle4
                        {
                          OFFSET 2.996877 0.0 8e-06
                          CHANNELS 3 Zrotation Yrotation Xrotation
                          JOINT LeftHandMiddleEnd
                          {
                            OFFSET 2.323256 3e-06 -4e-06
                            CHANNELS 3 Zrotation Yrotation Xrotation
                          }
                        }
                      }
                    }
                  }
                  JOINT LeftHandRing1
                  {
                    OFFSET 2.882606 -0.309162 0.107445
                    CHANNELS 3 Zrotation Yrotation Xrotation
                    JOINT LeftHandRing2
                    {
                      OFFSET 6.033198 0.0 4e-06
                      CHANNELS 3 Zrotation Yrotation Xrotation
                      JOINT LeftHandRing3
                      {
                        OFFSET 4.350578 3e-06 0.0
                        CHANNELS 3 Zrotation Yrotation Xrotation
                        JOINT LeftHandRing4
                        {
                          OFFSET 2.651321 2e-06 -7e-06
                          CHANNELS 3 Zrotation Yrotation Xrotation
                          JOINT LeftHandRingEnd
                          {
                            OFFSET 1.937663 1e-06 -4e-06
                            CHANNELS 3 Zrotation Yrotation Xrotation
                          }
                        }
                      }
                    }
                  }
                  JOINT LeftHandPinky1
                  {
                    OFFSET 2.865315 -1.525436 0.575687
                    CHANNELS 3 Zrotation Yrotation Xrotation
                    JOINT LeftHandPinky2
                    {
                      OFFSET 5.54936 1e-06 -8e-06
                      CHANNELS 3 Zrotation Yrotation Xrotation
                      JOINT LeftHandPinky3
                      {
                        OFFSET 3.070974 0.0 -4e-06
                        CHANNELS 3 Zrotation Yrotation Xrotation
                        JOINT LeftHandPinky4
                        {
                          OFFSET 1.549672 1e-06 0.0
                          CHANNELS 3 Zrotation Yrotation Xrotation
                          JOINT LeftHandPinkyEnd
                          {
                            OFFSET 1.952123 0.0 0.0
                            CHANNELS 3 Zrotation Yrotation Xrotation
                          }
                        }
                      }
                    }
                  }
                }
              }
            }
          }
          JOINT RightShoulder
          {
            OFFSET 23.161716 5.296122 -1.380114
            CHANNELS 3 Zrotation Yrotation Xrotation
            JOINT RightArm
            {
              OFFSET -16.027195 -2e-06 1.1e-05
              CHANNELS 3 Zrotation Yrotation Xrotation
              JOINT RightForeArm
              {
                OFFSET -28.736639 4e-06 2e-06
                CHANNELS 3 Zrotation Yrotation Xrotation
                JOINT RightHand
                {
                  OFFSET -27.133619 6e-06 0.0
                  CHANNELS 3 Zrotation Yrotation Xrotation
                  JOINT RightHandThumb1
                  {
                    OFFSET -2.274328 -3.351035 -0.83067
                    CHANNELS 3 Zrotation Yrotation Xrotation
                    JOINT RightHandThumb2
                    {
                      OFFSET -4.703594 -3e-06 2e-06
                      CHANNELS 3 Zrotation Yrotation Xrotation
                      JOINT RightHandThumb3
                      {
                        OFFSET -2.794935 -4e-06 -3e-06
                        CHANNELS 3 Zrotation Yrotation Xrotation
                        JOINT RightHandThumbEnd
                        {
                          OFFSET -3.183852 4e-06 1e-06
                          CHANNELS 3 Zrotation Yrotation Xrotation
                        }
                      }
                    }
                  }
                  JOINT RightHandIndex1
                  {
                    OFFSET -3.253496 -2.33755 -0.127667
                    CHANNELS 3 Zrotation Yrotation Xrotation
                    JOINT RightHandIndex2
                    {
                      OFFSET -6.344434 0.0 0.0
                      CHANNELS 3 Zrotation Yrotation Xrotation
                      JOINT RightHandIndex3
                      {
                        OFFSET -3.654871 0.0 -8e-06
                        CHANNELS 3 Zrotation Yrotation Xrotation
                        JOINT RightHandIndex4
                        {
                          OFFSET -2.327586 -1e-06 0.0
                          CHANNELS 3 Zrotation Yrotation Xrotation
                          JOINT RightHandIndexEnd
                          {
                            OFFSET -2.770001 3e-06 8e-06
                            CHANNELS 3 Zrotation Yrotation Xrotation
                          }
                        }
                      }
                    }
                  }
                  JOINT RightHandMiddle1
                  {
                    OFFSET -3.168223 -0.944764 0.411762
                    CHANNELS 3 Zrotation Yrotation Xrotation
                    JOINT RightHandMiddle2
                    {
                      OFFSET -6.266691 -1e-06 -4e-06
                      CHANNELS 3 Zrotation Yrotation Xrotation
                      JOINT RightHandMiddle3
                      {
                        OFFSET -4.348901 0.0 0.0
                        CHANNELS 3 Zrotation Yrotation Xrotation
                        JOINT RightHandMiddle4
                        {
                          OFFSET -3.00024 2e-06 -4e-06
                          CHANNELS 3 Zrotation Yrotation Xrotation
                          JOINT RightHandMiddleEnd
                          {
                            OFFSET -2.321477 -4e-06 -4e-06
                            CHANNELS 3 Zrotation Yrotation Xrotation
                          }
                        }
                      }
                    }
                  }
                  JOINT RightHandRing1
                  {
                    OFFSET -2.885654 0.293261 -0.119232
                    CHANNELS 3 Zrotation Yrotation Xrotation
                    JOINT RightHandRing2
                    {
                      OFFSET -6.032835 -1e-06 -4e-06
                      CHANNELS 3 Zrotation Yrotation Xrotation
                      JOINT RightHandRing3
                      {
                        OFFSET -4.33881 0.0 -4e-06
                        CHANNELS 3 Zrotation Yrotation Xrotation
                        JOINT RightHandRing4
                        {
                          OFFSET -2.654903 -4e-06 -4e-06
                          CHANNELS 3 Zrotation Yrotation Xrotation
                          JOINT RightHandRingEnd
                          {
                            OFFSET -1.935122 0.0 4e-06
                            CHANNELS 3 Zrotation Yrotation Xrotation
                          }
                        }
                      }
                    }
                  }
                  JOINT RightHandPinky1
                  {
                    OFFSET -2.866241 1.503904 -0.60527
                    CHANNELS 3 Zrotation Yrotation Xrotation
                    JOINT RightHandPinky2
                    {
                      OFFSET -5.553177 -2e-06 0.0
                      CHANNELS 3 Zrotation Yrotation Xrotation
                      JOINT RightHandPinky3
                      {
                        OFFSET -3.062664 -1e-06 -4e-06
                        CHANNELS 3 Zrotation Yrotation Xrotation
                        JOINT RightHandPinky4
                        {
                          OFFSET -1.546529 2e-06 4e-06
                          CHANNELS 3 Zrotation Yrotation Xrotation
                          JOINT RightHandPinkyEnd
                          {
                            OFFSET -1.952341 0.0 -4e-06
                            CHANNELS 3 Zrotation Yrotation Xrotation
                          }
                        }
                      }
                    }
                  }
                }
              }
            }
          }
        }
      }
    }
    JOINT LeftLeg
    {
      OFFSET -8.443107 2.567604 10.043214
      CHANNELS 3 Zrotation Yrotation Xrotation
      JOINT LeftShin
      {
        OFFSET 43.229198 1e-06 -1e-06
        CHANNELS 3 Zrotation Yrotation Xrotation
        JOINT LeftFoot
        {
          OFFSET 42.298611 1e-06 1e-06
          CHANNELS 3 Zrotation Yrotation Xrotation
          JOINT LeftToeBase
          {
            OFFSET 14.165858 1e-06 0.0
            CHANNELS 3 Zrotation Yrotation Xrotation
            JOINT LeftToeEnd
            {
              OFFSET 6.7141 -0.234461 0.0
              CHANNELS 3 Zrotation Yrotation Xrotation
            }
          }
        }
      }
    }
    JOINT RightLeg
    {
      OFFSET -8.303923 2.592729 -10.047278
      CHANNELS 3 Zrotation Yrotation Xrotation
      JOINT RightShin
      {
        OFFSET -43.369682 0.0 1e-06
        CHANNELS 3 Zrotation Yrotation Xrotation
        JOINT RightFoot
        {
          OFFSET -42.260784 4e-06 2e-06
          CHANNELS 3 Zrotation Yrotation Xrotation
          JOINT RightToeBase
          {
            OFFSET -14.222245 -2e-06 -1e-06
            CHANNELS 3 Zrotation Yrotation Xrotation
            JOINT RightToeEnd
            {
              OFFSET -6.660062 0.232574 -2e-06
              CHANNELS 3 Zrotation Yrotation Xrotation
            }
          }
        }
      }
    }
  }
}
MOTION
Frames: 4
Frame Time: 0.03333333333333333
0.0 0.0 0.0 0.0 -0.0 0.0 -2.500002 2.909726 -91.037003 58.993183 87.125336 59.174717 -0.070132 -0.925158 0.773338 -11.261089 -0.15421 0.16305 11.374234 -2.518682 -3.577787 3.923625 -3.095238 4.054713 -3.14864 -0.995044 1.630555 -38.596485 -1.361997 0.991504 6e-06 0.0 -0.0 -0.194433 0.114003 -0.151578 -0.431512 -0.237858 0.07983 0.023316 0.434497 -0.350306 -47.762276 -73.887489 61.54562 19.948242 -69.816315 30.236361 16.748285 1.368044 -0.225113 1.200702 -6.046191 10.96465 17.636618 -26.322721 52.411182 -19.466654 -14.395594 29.410385 1e-06 -8.77482 -2e-06 16.21904 -17.889116 6.463002 -0.609776 -1.795654 -3.889328 -4.807087 -11.046807 -2.937849 3e-06 -20.976011 0.0 -5.019973 -25.033556 -4.031878 5e-06 -1e-06 -1e-06 -10.634531 -5.68697 -3.565587 10.573269 -17.922945 -3.113896 2e-06 -13.821205 -0.0 -0.501776 -31.181494 -4.027016 -11.91506 -60.89061 8.748743 -13.982712 -7.150196 -2.875037 13.772726 -8.401489 -3.218241 0.347729 -34.21154 0.771655 -0.963029 -17.733366 2.621017 2e-06 -1e-06 -0.0 -17.346413 -20.095211 -4.20178 21.757551 -1.638373 3.866426 1e-06 -6.338822 -3e-06 -1.69759 -22.591738 -6.194004 -1e-06 -5e-06 -2e-06 168.52179 -73.364189 17.657896 -11.764894 -65.402748 46.876171 23.588259 -3.033458 -0.586878 -2.594637 -2.056418 17.05409 22.182106 -20.375891 49.933319 -16.701807 -16.743528 28.476528 -2e-06 -12.6906 -0.0 15.951772 -16.980421 2.371132 -0.105918 -1.513856 -4.275878 -5.039042 -5.61287 -2.953556 2e-06 -11.020524 -2e-06 -6.1113 -15.895334 -3.840472 1e-06 2e-06 0.0 -10.283369 -5.680288 -4.341837 11.028292 -11.302402 -2.372635 -1.384272 -14.238579 -6.320118 -0.625439 -26.924183 -3.827603 -3.739764 -48.703442 -4.548243 -13.708523 -7.363477 -3.720935 18.141146 -14.052736 -3.24268 3e-06 -18.787266 -1e-06 -0.429714 -8.456041 2.555504 0.0 -0.0 -0.0 -15.923538 -20.094479 -5.473582 30.41921 -7.190818 1.735924 1e-06 -8.162924 -1e-06 -1.861904 -22.861464 -6.167943 1e-06 -2e-06 0.0 166.475998 -16.851334 -27.730114 23.210756 2.698347 -5.698385 -25.981087 -54.230927 -39.978825 -9.01458 1.249072 1.479691 -0.999999 0.0 0.0 -14.390269 -17.402191 -31.510139 25.487154 0.879634 -3.915362 -15.757956 -40.433582 -34.285145 -8.420017 0.41642 1.041893 -1.000005 -0.0 -0.0 
0.0 0.0 0.0 0.0 -0.0 0.0 -2.500945 2.922714 -91.076805 58.73811 87.109917 58.900169 -0.074692 -0.902618 0.780139 -11.253587 -0.138768 0.15579 11.347886 -2.526479 -3.583595 3.904151 -3.183067 4.056096 -3.15185 -0.979335 1.655586 -38.562916 -1.332136 0.929076 6e-06 -0.0 -1e-06 -0.193296 0.111953 -0.152005 -0.450132 -0.232998 0.079253 0.009933 0.425242 -0.350835 -47.791965 -73.880234 61.56234 19.954018 -69.821777 30.192814 16.738199 1.303476 -0.237727 1.184182 -6.004974 11.03344 17.636629 -26.322731 52.41119 -19.466661 -14.395597 29.410393 0.0 -8.774822 -2e-06 16.226944 -17.894325 6.472368 -0.609777 -1.795653 -3.889328 -4.80709 -11.046811 -2.937852 4e-06 -20.976015 -1e-06 -5.019971 -25.03356 -4.031882 8e-06 -0.0 2e-06 -10.634533 -5.686971 -3.565588 10.573272 -17.922951 -3.113901 3e-06 -13.821213 -0.0 -0.501775 -31.181505 -4.027019 -11.937008 -60.940609 8.765442 -13.982715 -7.150198 -2.875041 13.77273 -8.401491 -3.218242 0.347735 -34.211544 0.771652 -0.963028 -17.73337 2.62102 2e-06 -1e-06 -1e-06 -17.346422 -20.095217 -4.201784 21.757557 -1.638375 3.86643 2e-06 -6.338822 -2e-06 -1.69759 -22.591738 -6.194004 -1e-06 -5e-06 -2e-06 168.535965 -73.343895 17.58161 -11.840095 -65.401108 46.90543 23.59269 -3.060189 -0.579151 -2.644465 -2.044051 17.173244 22.182114 -20.375891 49.933319 -16.701809 -16.743528 28.476528 -2e-06 -12.6906 -1e-06 15.959284 -17.022488 2.370951 -0.10592 -1.513855 -4.275883 -5.039041 -5.61287 -2.953556 3e-06 -11.020525 -3e-06 -6.1113 -15.895334 -3.840472 1e-06 1e-06 2e-06 -10.283369 -5.680288 -4.341838 11.028294 -11.302406 -2.372634 -1.384271 -14.238581 -6.320117 -0.625439 -26.924187 -3.827603 -3.760086 -48.692329 -4.540387 -13.708526 -7.363476 -3.720941 18.14115 -14.052739 -3.242677 6e-06 -18.78727 -3e-06 -0.429711 -8.456042 2.555505 0.0 -0.0 -0.0 -15.923536 -20.094482 -5.473584 30.41921 -7.190824 1.735929 2e-06 -8.162926 -1e-06 -1.861902 -22.861467 -6.167942 1e-06 -1e-06 -1e-06 166.587891 -16.807558 -27.744238 22.970095 2.68659 -5.688292 -25.812941 -54.255859 -40.093163 -8.987627 1.242309 1.470206 -1.000001 -1e-06 -2e-06 -14.293941 -17.290897 -31.536049 25.237661 0.842514 -3.905008 -15.613008 -40.412086 -34.258617 -8.436822 0.409249 1.042936 -1.000002 0.0 0.0 
0.0 0.0 0.0 0.0 -0.0 0.0 -2.499752 2.925086 -91.09404 58.531376 87.119682 58.675068 -0.067428 -0.892342 0.787061 -11.237824 -0.133896 0.149499 11.318552 -2.534149 -3.595165 3.86934 -3.256186 4.059593 -3.158399 -0.900751 1.661512 -38.53038 -1.312694 0.894264 6e-06 -0.0 -0.0 -0.190783 0.109337 -0.15098 -0.473117 -0.230472 0.07891 -0.004009 0.416669 -0.348711 -47.727459 -73.872566 61.486469 19.943882 -69.858879 30.207983 16.722267 1.267327 -0.259491 1.167519 -5.959638 11.090364 17.636627 -26.322733 52.41119 -19.46666 -14.395598 29.410393 0.0 -8.774821 -4e-06 16.219271 -17.887146 6.482817 -0.609776 -1.795654 -3.889327 -4.807089 -11.046813 -2.93785 4e-06 -20.976017 -1e-06 -5.019973 -25.03356 -4.031879 7e-06 1e-06 0.0 -10.634533 -5.68697 -3.565588 10.573272 -17.922951 -3.1139 3e-06 -13.821211 1e-06 -0.501776 -31.181501 -4.027016 -11.988854 -61.004513 8.815754 -13.982714 -7.150198 -2.875043 13.772729 -8.401491 -3.218243 0.347731 -34.211555 0.771657 -0.963032 -17.733372 2.621021 1e-06 1e-06 -1e-06 -17.346418 -20.095219 -4.201782 21.757557 -1.638374 3.866428 2e-06 -6.338825 -2e-06 -1.697592 -22.591747 -6.194004 0.0 -5e-06 -1e-06 168.575058 -73.324669 17.508047 -11.809481 -65.401581 46.853645 23.581848 -3.09648 -0.581155 -2.675947 -2.051128 17.277134 22.182117 -20.375898 49.933327 -16.701811 -16.74353 28.476532 -3e-06 -12.690604 -1e-06 15.977958 -17.071938 2.363572 -0.10592 -1.513855 -4.27588 -5.039041 -5.612874 -2.953557 3e-06 -11.020526 -3e-06 -6.111298 -15.895336 -3.840471 1e-06 1e-06 1e-06 -10.283369 -5.680288 -4.341838 11.028294 -11.302404 -2.372634 -1.384269 -14.238581 -6.320117 -0.625437 -26.924191 -3.827602 -3.783172 -48.66576 -4.548722 -13.708525 -7.363475 -3.720938 18.14115 -14.052741 -3.242678 7e-06 -18.787271 -3e-06 -0.429712 -8.456043 2.555504 1e-06 -0.0 -1e-06 -15.923536 -20.094482 -5.473585 30.41921 -7.190826 1.735925 2e-06 -8.162927 -1e-06 -1.861902 -22.861473 -6.167945 1e-06 -3e-06 1e-06 166.662491 -16.786514 -27.769672 22.857897 2.68587 -5.693313 -25.76016 -54.263927 -40.138187 -8.985592 1.227729 1.454627 -0.999999 1e-06 0.0 -14.243034 -17.239634 -31.541424 25.126844 0.811813 -3.902982 -15.561857 -40.409351 -34.255856 -8.415972 0.397544 1.038153 -1.000002 -0.0 1e-06 
0.0 0.0 0.0 0.0 -0.0 0.0 -2.500316 2.91326 -91.112076 58.24118 87.148369 58.365093 -0.043593 -0.8991 0.796771 -11.221 -0.14078 0.141425 11.291258 -2.527636 -3.610816 3.850565 -3.293705 4.072821 -3.167227 -0.838492 1.648011 -38.508205 -1.276801 0.862707 6e-06 -0.0 -0.0 -0.188059 0.10335 -0.146604 -0.495683 -0.236647 0.079789 -0.015686 0.409683 -0.341052 -47.674725 -73.880493 61.448807 19.970383 -69.877052 30.212362 16.699448 1.259846 -0.286839 1.141595 -5.91938 11.128128 17.636627 -26.322737 52.411201 -19.466665 -14.395602 29.410395 0.0 -8.774822 -2e-06 16.194206 -17.858137 6.485853 -0.609777 -1.795654 -3.889327 -4.80709 -11.046813 -2.937854 4e-06 -20.976019 -0.0 -5.01997 -25.033564 -4.031881 7e-06 1e-06 1e-06 -10.634535 -5.686973 -3.565589 10.573272 -17.922955 -3.1139 3e-06 -13.821213 1e-06 -0.501778 -31.181507 -4.027018 -12.018991 -61.043571 8.845364 -13.982717 -7.150199 -2.875042 13.772731 -8.401493 -3.218243 0.347733 -34.211555 0.771655 -0.963028 -17.733374 2.62102 -1e-06 0.0 -0.0 -17.346422 -20.095221 -4.201783 21.757561 -1.638373 3.866427 1e-06 -6.338824 -1e-06 -1.697592 -22.591747 -6.194005 -1e-06 -6e-06 -1e-06 168.659714 -73.322716 17.408865 -11.741464 -65.390297 46.78096 23.581123 -3.12734 -0.577677 -2.693375 -2.088921 17.339905 22.182116 -20.3759 49.933323 -16.701815 -16.743532 28.476532 -1e-06 -12.690605 0.0 15.992658 -17.102665 2.35888 -0.105919 -1.513857 -4.275881 -5.039042 -5.612872 -2.953553 3e-06 -11.020526 -2e-06 -6.1113 -15.895336 -3.840469 1e-06 0.0 0.0 -10.283374 -5.680289 -4.341838 11.028296 -11.302407 -2.372634 -1.384272 -14.238583 -6.320119 -0.625438 -26.924191 -3.827601 -3.803149 -48.650009 -4.55603 -13.708527 -7.363477 -3.720936 18.141153 -14.052742 -3.242676 5e-06 -18.787273 -1e-06 -0.429715 -8.456048 2.555507 0.0 -0.0 -0.0 -15.923541 -20.094486 -5.473581 30.419218 -7.190826 1.735925 2e-06 -8.162929 -1e-06 -1.861902 -22.861475 -6.167944 0.0 -0.0 -0.0 166.75621 -16.752071 -27.802982 22.725634 2.677711 -5.70809 -25.679564 -54.24699 -40.167297 -9.014679 1.217764 1.444268 -1.0 -1e-06 0.0 -14.176886 -17.199383 -31.555508 25.012459 0.791928 -3.910651 -15.532789 -40.423466 -34.259857 -8.381741 0.387323 1.033151 -1.000002 1e-06 -0.0 
